<svg width="2403" height="1456" viewBox="0 0 2403 1456" fill="none" xmlns="http://www.w3.org/2000/svg">
<path d="M300.431 659C314.072 635.372 320.893 623.558 329.798 619.594C337.565 616.135 346.435 616.135 354.202 619.594C363.107 623.558 369.928 635.372 383.569 659L516.937 890C530.579 913.628 537.399 925.442 536.38 935.136C535.492 943.592 531.057 951.273 524.178 956.271C516.292 962 502.651 962 475.368 962H208.632C181.349 962 167.708 962 159.822 956.271C152.943 951.273 148.508 943.592 147.62 935.136C146.601 925.442 153.421 913.628 167.063 890L300.431 659Z" fill="black"/>
<path d="M945.431 284C959.072 260.372 965.893 248.558 974.798 244.594C982.565 241.135 991.435 241.135 999.202 244.594C1008.11 248.558 1014.93 260.372 1028.57 284L1161.94 515C1175.58 538.628 1182.4 550.442 1181.38 560.136C1180.49 568.592 1176.06 576.273 1169.18 581.271C1161.29 587 1147.65 587 1120.37 587H853.632C826.349 587 812.708 587 804.822 581.271C797.943 576.273 793.508 568.592 792.62 560.136C791.601 550.442 798.421 538.628 812.063 515L945.431 284Z" fill="#262626"/>
<path d="M1119.87 586.506C1147.16 586.506 1160.8 586.506 1168.68 592.236C1175.56 597.233 1180 604.915 1180.89 613.37C1181.91 623.065 1175.08 634.879 1161.44 658.506L1028.08 889.506C1014.43 913.134 1007.61 924.948 998.708 928.913C990.941 932.371 982.071 932.371 974.304 928.913C965.399 924.948 958.579 913.134 944.937 889.506L811.569 658.506C797.928 634.879 791.107 623.065 792.126 613.37C793.015 604.915 797.449 597.233 804.328 592.236C812.214 586.506 825.855 586.506 853.138 586.506L1119.87 586.506Z" fill="#262626"/>
<path d="M1802.42 1028C1816.06 1004.37 1822.88 992.558 1831.78 988.594C1839.55 985.135 1848.42 985.135 1856.19 988.594C1865.09 992.558 1871.91 1004.37 1885.56 1028L2018.92 1259C2032.57 1282.63 2039.39 1294.44 2038.37 1304.14C2037.48 1312.59 2033.04 1320.27 2026.17 1325.27C2018.28 1331 2004.64 1331 1977.35 1331H1710.62C1683.34 1331 1669.69 1331 1661.81 1325.27C1654.93 1320.27 1650.5 1312.59 1649.61 1304.14C1648.59 1294.44 1655.41 1282.63 1669.05 1259L1802.42 1028Z" fill="#262626"/>
<path d="M512.431 1028C526.072 1004.37 532.893 992.558 541.798 988.594C549.565 985.135 558.435 985.135 566.202 988.594C575.107 992.558 581.928 1004.37 595.569 1028L728.937 1259C742.579 1282.63 749.399 1294.44 748.38 1304.14C747.492 1312.59 743.057 1320.27 736.178 1325.27C728.292 1331 714.651 1331 687.368 1331H420.632C393.349 1331 379.708 1331 371.822 1325.27C364.943 1320.27 360.508 1312.59 359.62 1304.14C358.601 1294.44 365.421 1282.63 379.063 1259L512.431 1028Z" fill="#262626"/>
<path d="M2193.87 960.506C2221.16 960.506 2234.8 960.506 2242.68 966.236C2249.56 971.233 2254 978.915 2254.89 987.37C2255.91 997.065 2249.08 1008.88 2235.44 1032.51L2102.08 1263.51C2088.43 1287.13 2081.61 1298.95 2072.71 1302.91C2064.94 1306.37 2056.07 1306.37 2048.3 1302.91C2039.4 1298.95 2032.58 1287.13 2018.94 1263.51L1885.57 1032.51C1871.93 1008.88 1865.11 997.065 1866.13 987.37C1867.01 978.915 1871.45 971.233 1878.33 966.236C1886.21 960.506 1899.86 960.506 1927.14 960.506L2193.87 960.506Z" fill="black"/>
<path d="M2235.44 889.506C2249.08 913.134 2255.91 924.948 2254.89 934.642C2254 943.098 2249.56 950.779 2242.68 955.777C2234.8 961.506 2221.16 961.506 2193.87 961.506L1927.14 961.506C1899.86 961.506 1886.21 961.506 1878.33 955.777C1871.45 950.779 1867.01 943.098 1866.13 934.642C1865.11 924.948 1871.93 913.134 1885.57 889.506L2018.94 658.506C2032.58 634.879 2039.4 623.065 2048.3 619.1C2056.07 615.642 2064.94 615.642 2072.71 619.1C2081.61 623.065 2088.43 634.879 2102.08 658.506L2235.44 889.506Z" fill="black"/>
<path d="M1977.87 586.506C2005.16 586.506 2018.8 586.506 2026.68 592.236C2033.56 597.233 2038 604.915 2038.89 613.37C2039.91 623.065 2033.08 634.879 2019.44 658.506L1886.08 889.506C1872.43 913.134 1865.61 924.948 1856.71 928.913C1848.94 932.371 1840.07 932.371 1832.3 928.913C1823.4 924.948 1816.58 913.134 1802.94 889.506L1669.57 658.506C1655.93 634.879 1649.11 623.065 1650.13 613.37C1651.01 604.915 1655.45 597.233 1662.33 592.236C1670.21 586.506 1683.86 586.506 1711.14 586.506L1977.87 586.506Z" fill="black"/>
<path d="M1803.43 284C1817.07 260.372 1823.89 248.558 1832.8 244.594C1840.57 241.135 1849.43 241.135 1857.2 244.594C1866.11 248.558 1872.93 260.372 1886.57 284L2019.94 515C2033.58 538.628 2040.4 550.442 2039.38 560.136C2038.49 568.592 2034.06 576.273 2027.18 581.271C2019.29 587 2005.65 587 1978.37 587H1711.63C1684.35 587 1670.71 587 1662.82 581.271C1655.94 576.273 1651.51 568.592 1650.62 560.136C1649.6 550.442 1656.42 538.628 1670.06 515L1803.43 284Z" fill="black"/>
<path d="M1763.87 213C1791.16 213 1804.8 213 1812.68 218.729C1819.56 223.727 1824 231.408 1824.89 239.864C1825.91 249.558 1819.09 261.372 1805.44 285L1672.08 516C1658.43 539.628 1651.61 551.442 1642.71 555.406C1634.94 558.865 1626.07 558.865 1618.3 555.406C1609.4 551.442 1602.58 539.628 1588.94 516L1455.57 285C1441.93 261.372 1435.11 249.558 1436.13 239.864C1437.01 231.408 1441.45 223.727 1448.33 218.729C1456.21 213 1469.86 213 1497.14 213L1763.87 213Z" fill="black"/>
<path d="M1591.44 514.506C1605.08 538.134 1611.91 549.948 1610.89 559.642C1610 568.098 1605.56 575.779 1598.68 580.777C1590.8 586.506 1577.16 586.506 1549.87 586.506L1283.14 586.506C1255.86 586.506 1242.21 586.506 1234.33 580.777C1227.45 575.779 1223.01 568.098 1222.13 559.642C1221.11 549.948 1227.93 538.134 1241.57 514.506L1374.94 283.506C1388.58 259.879 1395.4 248.065 1404.3 244.1C1412.07 240.642 1420.94 240.642 1428.71 244.1C1437.61 248.065 1444.43 259.879 1458.08 283.506L1591.44 514.506Z" fill="#262626"/>
<path d="M1549.87 586.506C1577.16 586.506 1590.8 586.506 1598.68 592.236C1605.56 597.233 1610 604.915 1610.89 613.37C1611.91 623.065 1605.08 634.879 1591.44 658.506L1458.08 889.506C1444.43 913.134 1437.61 924.948 1428.71 928.913C1420.94 932.371 1412.07 932.371 1404.3 928.913C1395.4 924.948 1388.58 913.134 1374.94 889.506L1241.57 658.506C1227.93 634.879 1221.11 623.065 1222.13 613.37C1223.01 604.915 1227.45 597.233 1234.33 592.236C1242.21 586.506 1255.86 586.506 1283.14 586.506L1549.87 586.506Z" fill="#262626"/>
<path d="M474.874 960.506C502.157 960.506 515.799 960.506 523.685 966.236C530.563 971.233 534.998 978.915 535.887 987.37C536.906 997.065 530.085 1008.88 516.443 1032.51L383.076 1263.51C369.434 1287.13 362.613 1298.95 353.708 1302.91C345.941 1306.37 337.071 1306.37 329.304 1302.91C320.399 1298.95 313.579 1287.13 299.937 1263.51L166.569 1032.51C152.928 1008.88 146.107 997.065 147.126 987.37C148.015 978.915 152.449 971.233 159.328 966.236C167.214 960.506 180.855 960.506 208.138 960.506L474.874 960.506Z" fill="black"/>
<path d="M1376.44 888.506C1390.08 912.134 1396.91 923.948 1395.89 933.642C1395 942.098 1390.56 949.779 1383.68 954.777C1375.8 960.506 1362.16 960.506 1334.87 960.506L1068.14 960.506C1040.86 960.506 1027.21 960.506 1019.33 954.777C1012.45 949.779 1008.01 942.098 1007.13 933.642C1006.11 923.948 1012.93 912.134 1026.57 888.506L1159.94 657.506C1173.58 633.879 1180.4 622.065 1189.3 618.1C1197.07 614.642 1205.94 614.642 1213.71 618.1C1222.61 622.065 1229.43 633.879 1243.08 657.506L1376.44 888.506Z" fill="black"/>
<path d="M686.874 586.506C714.157 586.506 727.799 586.506 735.685 592.236C742.563 597.233 746.998 604.915 747.887 613.37C748.906 623.065 742.085 634.879 728.443 658.506L595.076 889.506C581.434 913.134 574.613 924.948 565.708 928.913C557.941 932.371 549.071 932.371 541.304 928.913C532.399 924.948 525.579 913.134 511.937 889.506L378.569 658.506C364.928 634.879 358.107 623.065 359.126 613.37C360.015 604.915 364.449 597.233 371.328 592.236C379.214 586.506 392.855 586.506 420.138 586.506L686.874 586.506Z" fill="black"/>
<path d="M594.569 288.506C580.928 264.879 574.107 253.065 575.126 243.37C576.015 234.915 580.449 227.233 587.328 222.236C595.214 216.506 608.855 216.506 636.138 216.506L902.874 216.506C930.157 216.506 943.799 216.506 951.685 222.236C958.563 227.233 962.998 234.915 963.887 243.371C964.906 253.065 958.085 264.879 944.443 288.506L811.076 519.506C797.434 543.134 790.613 554.948 781.708 558.913C773.941 562.371 765.071 562.371 757.304 558.913C748.399 554.948 741.579 543.134 727.937 519.506L594.569 288.506Z" fill="black"/>
<path d="M512.431 284C526.072 260.372 532.893 248.558 541.798 244.594C549.565 241.135 558.435 241.135 566.202 244.594C575.107 248.558 581.928 260.372 595.569 284L728.937 515C742.579 538.628 749.399 550.442 748.38 560.136C747.492 568.592 743.057 576.273 736.178 581.271C728.292 587 714.651 587 687.368 587H420.632C393.349 587 379.708 587 371.822 581.271C364.943 576.273 360.508 568.592 359.62 560.136C358.601 550.442 365.421 538.628 379.063 515L512.431 284Z" fill="black"/>
</svg>
