<svg width="124" height="124" viewBox="0 0 124 124" fill="none" xmlns="http://www.w3.org/2000/svg">
<path d="M24.8591 54.2293C25.423 53.2526 25.7049 52.7645 26.073 52.6004C26.394 52.4578 26.7606 52.4578 27.0817 52.6004C27.4497 52.7645 27.7317 53.2526 28.2955 54.2293L33.808 63.7773C34.3719 64.754 34.6538 65.2422 34.6117 65.6431C34.575 65.9924 34.3917 66.3098 34.1073 66.5165C33.7814 66.7533 33.2176 66.7533 32.0899 66.7533H21.0648C19.9371 66.7533 19.3732 66.7533 19.0473 66.5165C18.763 66.3098 18.5796 65.9924 18.5429 65.6431C18.5008 65.2422 18.7827 64.754 19.3466 63.7773L24.8591 54.2293Z" fill="black"/>
<path d="M51.5191 38.7294C52.0829 37.7527 52.3648 37.2644 52.7331 37.1006C53.0542 36.9576 53.4205 36.9576 53.7416 37.1006C54.1099 37.2644 54.3918 37.7527 54.9556 38.7294L60.4682 48.2774C61.032 49.2541 61.3139 49.7422 61.2717 50.1431C61.2349 50.4924 61.0518 50.8099 60.7675 51.0165C60.4413 51.2534 59.8776 51.2534 58.75 51.2534H47.7247C46.5972 51.2534 46.0334 51.2534 45.7072 51.0165C45.4229 50.8099 45.2398 50.4924 45.203 50.1431C45.1608 49.7422 45.4427 49.2541 46.0065 48.2774L51.5191 38.7294Z" fill="#1E1E1E"/>
<path d="M58.7293 51.2331C59.8573 51.2331 60.4211 51.2331 60.7468 51.4699C61.0312 51.6762 61.2147 51.9936 61.2515 52.3433C61.2936 52.7438 61.0113 53.2324 60.4475 54.2091L54.9353 63.7571C54.3711 64.7334 54.0892 65.2219 53.7214 65.3856C53.4002 65.5286 53.0336 65.5286 52.7124 65.3856C52.3445 65.2219 52.0626 64.7334 51.4989 63.7571L45.9862 54.2091C45.4224 53.2324 45.1406 52.7438 45.1827 52.3433C45.2191 51.9936 45.4026 51.6762 45.687 51.4699C46.0127 51.2331 46.5769 51.2331 47.7045 51.2331H58.7293Z" fill="#1E1E1E"/>
<path d="M86.9414 69.4813C87.5051 68.5046 87.787 68.0165 88.1553 67.8524C88.4761 67.7098 88.8427 67.7098 89.1639 67.8524C89.5317 68.0165 89.814 68.5046 90.3778 69.4813L95.89 79.0293C96.4542 80.006 96.7361 80.4942 96.694 80.8951C96.6572 81.2444 96.4737 81.5618 96.1897 81.7685C95.8636 82.0053 95.2998 82.0053 94.1722 82.0053H83.147C82.0194 82.0053 81.4552 82.0053 81.1295 81.7685C80.8451 81.5618 80.662 81.2444 80.6252 80.8951C80.5831 80.4942 80.865 80.006 81.4287 79.0293L86.9414 69.4813Z" fill="black"/>
<path d="M33.6218 69.4813C34.1856 68.5046 34.4676 68.0165 34.8357 67.8524C35.1567 67.7098 35.5233 67.7098 35.8444 67.8524C36.2124 68.0165 36.4944 68.5046 37.0582 69.4813L42.5709 79.0293C43.1346 80.006 43.4165 80.4942 43.3744 80.8951C43.3376 81.2444 43.1545 81.5618 42.8701 81.7685C42.544 82.0053 41.9802 82.0053 40.8525 82.0053H29.8275C28.6998 82.0053 28.1359 82.0053 27.81 81.7685C27.5256 81.5618 27.3423 81.2444 27.3056 80.8951C27.2635 80.4942 27.5454 80.006 28.1093 79.0293L33.6218 69.4813Z" fill="black"/>
<path d="M103.121 66.6918C104.249 66.6918 104.813 66.6918 105.139 66.9286C105.423 67.1349 105.607 67.4523 105.643 67.802C105.686 68.2025 105.403 68.6911 104.839 69.6678L99.3273 79.2158C98.7631 80.1921 98.4812 80.6806 98.1133 80.8443C97.7922 80.9873 97.4255 80.9873 97.1044 80.8443C96.7365 80.6806 96.4546 80.1921 95.8908 79.2158L90.3782 69.6678C89.8144 68.6911 89.5325 68.2025 89.5747 67.802C89.6111 67.4523 89.7946 67.1349 90.079 66.9286C90.4047 66.6918 90.9689 66.6918 92.0964 66.6918H103.121Z" fill="black"/>
<path d="M104.839 63.7571C105.403 64.7334 105.686 65.222 105.643 65.6225C105.607 65.9722 105.423 66.2896 105.139 66.4963C104.813 66.7331 104.249 66.7331 103.121 66.7331H92.0964C90.9689 66.7331 90.4047 66.7331 90.079 66.4963C89.7946 66.2896 89.6111 65.9722 89.5747 65.6225C89.5325 65.222 89.8144 64.7334 90.3782 63.7571L95.8908 54.2091C96.4546 53.2324 96.7365 52.7438 97.1044 52.5802C97.4255 52.4371 97.7922 52.4371 98.1133 52.5802C98.4812 52.7438 98.7631 53.2324 99.3273 54.2091L104.839 63.7571Z" fill="black"/>
<path d="M94.1933 51.2331C95.3213 51.2331 95.8851 51.2331 96.2108 51.4699C96.4951 51.6762 96.6787 51.9936 96.7154 52.3433C96.7576 52.7438 96.4753 53.2324 95.9115 54.2091L90.3993 63.7571C89.8351 64.7334 89.5532 65.2219 89.1853 65.3856C88.8642 65.5286 88.4976 65.5286 88.1764 65.3856C87.8085 65.2219 87.5266 64.7334 86.9628 63.7571L81.4502 54.2091C80.8864 53.2324 80.6045 52.7438 80.6467 52.3433C80.6831 51.9936 80.8666 51.6762 81.151 51.4699C81.4767 51.2331 82.0409 51.2331 83.1685 51.2331H94.1933Z" fill="black"/>
<path d="M86.9831 38.7294C87.5469 37.7527 87.8288 37.2644 88.1971 37.1006C88.5182 36.9576 88.8844 36.9576 89.2056 37.1006C89.5739 37.2644 89.8558 37.7527 90.4196 38.7294L95.9322 48.2774C96.496 49.2541 96.7779 49.7422 96.7357 50.1431C96.6989 50.4924 96.5158 50.8099 96.2314 51.0165C95.9053 51.2534 95.3415 51.2534 94.214 51.2534H83.1887C82.0611 51.2534 81.4974 51.2534 81.1712 51.0165C80.8869 50.8099 80.7038 50.4924 80.667 50.1431C80.6248 49.7422 80.9067 49.2541 81.4705 48.2774L86.9831 38.7294Z" fill="black"/>
<path d="M85.348 35.7947C86.4759 35.7947 87.0397 35.7947 87.3654 36.0315C87.6498 36.2381 87.8333 36.5555 87.8701 36.9051C87.9123 37.3057 87.63 37.7941 87.0662 38.7707L81.554 48.3187C80.9898 49.2954 80.7079 49.7835 80.34 49.9476C80.0188 50.0902 79.6522 50.0902 79.3311 49.9476C78.9632 49.7835 78.6813 49.2954 78.1175 48.3187L72.6049 38.7707C72.0411 37.7941 71.7592 37.3057 71.8014 36.9051C71.8377 36.5555 72.0213 36.2381 72.3056 36.0315C72.6313 35.7947 73.1955 35.7947 74.3231 35.7947H85.348Z" fill="black"/>
<path d="M78.2208 48.2571C78.7846 49.2334 79.0669 49.722 79.0248 50.1225C78.988 50.4722 78.8045 50.7896 78.5201 50.9963C78.1944 51.2331 77.6306 51.2331 76.5026 51.2331H65.4778C64.3502 51.2331 63.786 51.2331 63.4603 50.9963C63.1759 50.7896 62.9924 50.4722 62.956 50.1225C62.9139 49.722 63.1958 49.2334 63.7595 48.2571L69.2722 38.7089C69.836 37.7324 70.1179 37.244 70.4857 37.0802C70.8069 36.9372 71.1735 36.9372 71.4947 37.0802C71.8625 37.244 72.1444 37.7324 72.7086 38.7089L78.2208 48.2571Z" fill="#1E1E1E"/>
<path d="M76.5026 51.2331C77.6306 51.2331 78.1944 51.2331 78.5201 51.4699C78.8045 51.6762 78.988 51.9936 79.0248 52.3433C79.0669 52.7438 78.7846 53.2324 78.2208 54.2091L72.7086 63.7571C72.1444 64.7334 71.8625 65.2219 71.4947 65.3856C71.1735 65.5286 70.8069 65.5286 70.4857 65.3856C70.1179 65.2219 69.836 64.7334 69.2722 63.7571L63.7595 54.2091C63.1958 53.2324 62.9139 52.7438 62.956 52.3433C62.9924 51.9936 63.1759 51.6762 63.4603 51.4699C63.786 51.2331 64.3502 51.2331 65.4778 51.2331H76.5026Z" fill="#1E1E1E"/>
<path d="M32.0695 66.6918C33.1972 66.6918 33.761 66.6918 34.087 66.9286C34.3713 67.1349 34.5546 67.4523 34.5913 67.802C34.6335 68.2025 34.3515 68.6911 33.7877 69.6678L28.2751 79.2158C27.7113 80.1921 27.4293 80.6806 27.0613 80.8443C26.7402 80.9873 26.3736 80.9873 26.0526 80.8443C25.6845 80.6806 25.4026 80.1921 24.8387 79.2158L19.3262 69.6678C18.7624 68.6911 18.4804 68.2025 18.5226 67.802C18.5593 67.4523 18.7426 67.1349 19.0269 66.9286C19.3529 66.6918 19.9167 66.6918 21.0444 66.6918H32.0695Z" fill="black"/>
<path d="M69.3341 63.7157C69.8979 64.692 70.1802 65.1806 70.1381 65.5811C70.1013 65.9308 69.9178 66.2482 69.6334 66.4549C69.3077 66.6917 68.7439 66.6917 67.6159 66.6917H56.5911C55.4635 66.6917 54.8993 66.6917 54.5736 66.4549C54.2892 66.2482 54.1057 65.9308 54.0693 65.5811C54.0272 65.1806 54.309 64.692 54.8728 63.7157L60.3855 54.1677C60.9492 53.191 61.2311 52.7025 61.599 52.5388C61.9202 52.3958 62.2868 52.3958 62.6079 52.5388C62.9758 52.7025 63.2577 53.191 63.8219 54.1677L69.3341 63.7157Z" fill="black"/>
<path d="M40.8322 51.2331C41.96 51.2331 42.5238 51.2331 42.8495 51.4699C43.1339 51.6762 43.3174 51.9936 43.3542 52.3433C43.3963 52.7438 43.114 53.2324 42.5502 54.2091L37.0378 63.7571C36.474 64.7334 36.192 65.2219 35.824 65.3856C35.5029 65.5286 35.1363 65.5286 34.8153 65.3856C34.4472 65.2219 34.1653 64.7334 33.6014 63.7571L28.0889 54.2091C27.5251 53.2324 27.2431 52.7438 27.2852 52.3433C27.322 51.9936 27.5053 51.6762 27.7896 51.4699C28.1156 51.2331 28.6794 51.2331 29.8071 51.2331H40.8322Z" fill="black"/>
<path d="M37.0169 38.9156C36.453 37.939 36.1711 37.4507 36.2132 37.05C36.25 36.7005 36.4332 36.383 36.7176 36.1764C37.0435 35.9396 37.6074 35.9396 38.7351 35.9396H49.76C50.888 35.9396 51.4518 35.9396 51.7775 36.1764C52.0618 36.383 52.2454 36.7005 52.2821 37.05C52.3243 37.4507 52.042 37.939 51.4782 38.9156L45.966 48.4637C45.4018 49.44 45.1199 49.9286 44.752 50.0923C44.4309 50.2353 44.0642 50.2353 43.7431 50.0923C43.3752 49.9286 43.0933 49.44 42.5295 48.4637L37.0169 38.9156Z" fill="black"/>
<path d="M33.6218 38.7294C34.1856 37.7527 34.4676 37.2644 34.8357 37.1006C35.1567 36.9576 35.5233 36.9576 35.8444 37.1006C36.2124 37.2644 36.4944 37.7527 37.0582 38.7294L42.5709 48.2774C43.1346 49.2541 43.4165 49.7422 43.3744 50.1431C43.3376 50.4924 43.1545 50.8099 42.8701 51.0165C42.544 51.2534 41.9802 51.2534 40.8525 51.2534H29.8275C28.6998 51.2534 28.1359 51.2534 27.81 51.0165C27.5256 50.8099 27.3423 50.4924 27.3056 50.1431C27.2635 49.7422 27.5454 49.2541 28.1093 48.2774L33.6218 38.7294Z" fill="black"/>
</svg>
